<svg width="143" height="142" viewBox="0 0 143 142" fill="none" xmlns="http://www.w3.org/2000/svg">
<path d="M130.251 8.3291C106.851 22.8792 76.7886 46.0245 47.5045 94.3807" stroke="white" stroke-width="2" stroke-linecap="round"/>
<path d="M90.6226 9.52272C72.9057 23.104 51.515 50.5472 40.2334 75.9175" stroke="white" stroke-width="2" stroke-linecap="round"/>
<path d="M58.9013 103.632C59.9386 103.783 60.8003 104.51 61.1245 105.507C61.4486 106.503 61.1782 107.598 60.4275 108.33L47.9014 120.539L50.8585 137.78C51.0359 138.813 50.6112 139.857 49.763 140.474C49.2838 140.822 48.7154 141 48.1446 141C47.7061 141 47.2663 140.895 46.8635 140.684L31.38 132.543L15.8968 140.684C14.969 141.171 13.8449 141.09 12.9967 140.474C12.1485 139.858 11.7238 138.814 11.9012 137.78L14.8583 120.54L2.33195 108.33C1.58124 107.598 1.31108 106.503 1.63494 105.507C1.9588 104.51 2.82077 103.783 3.85816 103.632L21.1688 101.117L28.9103 85.4304C29.3743 84.4905 30.3316 83.8954 31.3797 83.8954C32.4278 83.8954 33.3854 84.4905 33.8491 85.4304L41.5906 101.117L58.9013 103.632Z" stroke="#3AE4DF" stroke-width="2"/>
<path d="M141.436 34.3188C117.226 46.2905 81.471 75.3419 70.4038 90.4528" stroke="white" stroke-width="2" stroke-linecap="round"/>
<circle cx="65" cy="97" r="1" fill="white"/>
</svg>
