<svg width="130" height="47" viewBox="0 0 130 47" fill="none" xmlns="http://www.w3.org/2000/svg">
<path fill-rule="evenodd" clip-rule="evenodd" d="M15.8558 42.3047H15.8602L23.5469 42.3047H23.5621L32.79 42.3047V47H35.8682V43.7812H122.3C122.301 43.7823 122.302 43.7835 122.304 43.7823C126.544 43.7778 129.997 40.1675 130 35.7342V34.1225H128.461L128.459 34.1225L109.909 34.1228L108.136 37.3425H126.636C125.997 39.2102 124.304 40.5613 122.3 40.5624L35.8693 40.5613V37.3425L100.455 37.3425L102.227 34.1229L35.8693 34.1237V30.9049H32.7911L32.7911 35.6001H18.9394L18.9351 35.6001L11.243 35.599H11.2386H3.55195H3.53671H0L1.47963e-06 42.3047H15.8558ZM2.42489 38.1472L2.42489 39.7566L5.09993 39.7566L3.56085 38.1472H2.42489ZM12.7953 39.7566L11.2562 38.1472H7.2614L8.80048 39.7566H12.7953ZM20.4907 39.7566L18.9516 38.1472H14.9568L16.4959 39.7566H20.4907ZM28.1882 39.7566L26.6492 38.1472H22.6522L24.1912 39.7566L28.1882 39.7566ZM31.8899 39.7577L32.7911 39.7577V38.1483H30.3508L31.8899 39.7577Z" fill="white"/>
<path d="M29.4162 19.765C29.0223 22.2985 27.8589 24.2917 25.9261 25.7447C24.0057 27.1978 21.5374 27.9243 18.5213 27.9243H10.581L14.9759 0H21.5682C26.8494 0 29.4901 1.79456 29.4901 5.38367C29.4901 5.84318 29.4531 6.32131 29.3793 6.81807C29.17 8.14691 28.6652 9.34536 27.8651 10.4134C27.0649 11.4814 26.0985 12.2452 24.9659 12.7047C28.0066 13.512 29.527 15.4183 29.527 18.4237C29.527 18.8584 29.4901 19.3055 29.4162 19.765ZM25.8338 7.0975C25.8707 6.8367 25.8892 6.58211 25.8892 6.33373C25.8892 4.0983 24.375 2.98058 21.3466 2.98058H17.8196L16.4901 11.5497H20.2386C23.5009 11.5497 25.366 10.0657 25.8338 7.0975ZM25.8338 19.765C25.8954 19.3676 25.9261 18.9888 25.9261 18.6286C25.9261 15.8467 24.1534 14.4558 20.608 14.4558H16.0284L14.3849 24.9437H18.8906C22.9777 24.9437 25.2921 23.2175 25.8338 19.765Z" fill="white"/>
<path d="M52.7571 8.47602L50.9105 20.212C50.5166 22.6959 49.5687 24.6829 48.0668 26.1732C46.3925 27.8125 44.2258 28.6322 41.5668 28.6322C39.2647 28.6322 37.5227 28.0112 36.3409 26.7693C35.2576 25.6268 34.7159 24.062 34.7159 22.0749C34.7159 21.4788 34.7651 20.8578 34.8636 20.212L36.7102 8.45739H39.9048L38.0582 20.1748C37.9598 20.7833 37.9105 21.336 37.9105 21.8327C37.9105 24.4656 39.277 25.782 42.0099 25.782C45.2353 25.782 47.1435 23.9129 47.7344 20.1748L49.581 8.47602H52.7571Z" fill="white"/>
<path d="M74.2329 16.0579L72.3679 27.9243H69.1548L70.9829 16.2814C71.0814 15.6232 71.1307 15.0209 71.1307 14.4744C71.1307 11.8913 70.0104 10.5997 67.7699 10.5997C66.071 10.5997 64.5876 11.1896 63.3196 12.3694C61.9654 13.6486 61.1098 15.4121 60.7528 17.6599L59.1278 27.9243H55.9332L58.9986 8.47602H62.0824L61.5838 11.6615C62.3594 10.4693 63.4366 9.51301 64.8153 8.79271C66.1203 8.09724 67.4313 7.7495 68.7486 7.7495C72.5279 7.7495 74.4176 9.75519 74.4176 13.7665C74.4176 14.4744 74.3561 15.2382 74.2329 16.0579Z" fill="white"/>
<path d="M96.9829 16.0579L95.1179 27.9243H91.9048L93.7329 16.2814C93.8314 15.6232 93.8807 15.0209 93.8807 14.4744C93.8807 11.8913 92.7604 10.5997 90.5199 10.5997C88.821 10.5997 87.3376 11.1896 86.0696 12.3694C84.7154 13.6486 83.8598 15.4121 83.5028 17.6599L81.8778 27.9243H78.6832L81.7486 8.47602H84.8324L84.3338 11.6615C85.1094 10.4693 86.1865 9.51301 87.5653 8.79271C88.8703 8.09724 90.1813 7.7495 91.4986 7.7495C95.2779 7.7495 97.1676 9.75519 97.1676 13.7665C97.1676 14.4744 97.1061 15.2382 96.9829 16.0579Z" fill="white"/>
<path d="M122.595 8.47602L104.831 39.3623H101.378L108.118 27.6821L102.32 8.47602H105.828L110.408 23.8819L119.197 8.47602H122.595Z" fill="white"/>
</svg>
